<svg id="visual" viewBox="0 0 900 900" width="900" height="900" xmlns="http://www.w3.org/2000/svg" xmlns:xlink="http://www.w3.org/1999/xlink" version="1.1"><rect x="0" y="0" width="900" height="900" fill="#282c34"></rect><g fill="#526268"><circle r="33" cx="881" cy="40"></circle><circle r="11" cx="189" cy="93"></circle><circle r="24" cx="95" cy="589"></circle><circle r="10" cx="516" cy="822"></circle><circle r="27" cx="670" cy="448"></circle><circle r="22" cx="711" cy="803"></circle><circle r="30" cx="610" cy="819"></circle><circle r="20" cx="228" cy="823"></circle><circle r="30" cx="133" cy="175"></circle><circle r="29" cx="762" cy="273"></circle><circle r="28" cx="344" cy="354"></circle><circle r="20" cx="457" cy="402"></circle><circle r="10" cx="433" cy="766"></circle><circle r="23" cx="879" cy="302"></circle><circle r="15" cx="504" cy="310"></circle><circle r="17" cx="677" cy="283"></circle><circle r="17" cx="256" cy="613"></circle><circle r="16" cx="70" cy="81"></circle><circle r="19" cx="683" cy="617"></circle><circle r="13" cx="346" cy="454"></circle><circle r="15" cx="442" cy="36"></circle><circle r="21" cx="1" cy="840"></circle><circle r="26" cx="608" cy="670"></circle><circle r="10" cx="647" cy="156"></circle><circle r="19" cx="61" cy="215"></circle><circle r="15" cx="172" cy="599"></circle><circle r="16" cx="584" cy="444"></circle><circle r="26" cx="328" cy="845"></circle><circle r="27" cx="253" cy="25"></circle><circle r="27" cx="247" cy="207"></circle><circle r="10" cx="31" cy="761"></circle><circle r="16" cx="530" cy="19"></circle><circle r="27" cx="510" cy="746"></circle></g></svg>